<?xml version="1.0" standalone="no"?>
<!DOCTYPE svg PUBLIC "-//W3C//DTD SVG 20010904//EN"
 "http://www.w3.org/TR/2001/REC-SVG-20010904/DTD/svg10.dtd">
<svg version="1.0" xmlns="http://www.w3.org/2000/svg"
 width="1024.000000pt" height="1024.000000pt" viewBox="0 0 1024.000000 1024.000000"
 preserveAspectRatio="xMidYMid meet">
<metadata>
Created by potrace 1.11, written by Peter Selinger 2001-2013
</metadata>
<g transform="translate(0.000000,1024.000000) scale(0.100000,-0.100000)"
fill="#000000" stroke="none">
<path d="M1510 8776 c-4 -12 -27 -70 -50 -131 -23 -60 -45 -119 -50 -130 -5
-11 -93 -240 -196 -510 -102 -269 -197 -518 -210 -552 -13 -35 -36 -93 -50
-130 -14 -38 -31 -84 -39 -103 -7 -19 -28 -73 -45 -120 -18 -47 -36 -94 -41
-105 -5 -11 -108 -281 -229 -600 -121 -319 -224 -589 -229 -600 -5 -11 -63
-163 -130 -338 -94 -248 -118 -323 -111 -340 4 -12 18 -49 31 -82 12 -33 28
-73 35 -90 7 -16 56 -145 109 -285 53 -140 101 -266 106 -280 6 -14 141 -365
301 -780 159 -415 300 -782 313 -815 13 -33 83 -215 155 -405 72 -190 136
-356 142 -370 5 -14 52 -133 102 -265 l92 -240 592 -1 c326 -1 594 1 596 5 2
3 -87 229 -196 501 -110 272 -201 500 -202 505 -2 6 -8 21 -13 35 -6 14 -153
383 -327 820 -174 437 -321 804 -326 815 -5 11 -77 191 -160 400 -83 209 -155
389 -160 400 -5 11 -22 52 -38 91 l-29 71 134 334 c73 184 169 426 214 539 45
113 88 219 95 235 7 17 236 590 510 1275 273 685 498 1250 500 1255 3 8 -180
11 -592 11 -592 0 -596 0 -604 -20z"/>
<path d="M7526 8776 c8 -26 221 -563 234 -591 5 -11 41 -101 80 -200 39 -99
75 -189 80 -200 5 -11 134 -333 286 -715 151 -382 282 -708 289 -725 7 -16 84
-208 170 -425 86 -217 191 -479 232 -582 l75 -188 -152 -382 c-84 -211 -158
-396 -165 -413 -7 -16 -70 -174 -140 -350 -70 -176 -133 -333 -140 -350 -63
-147 -853 -2140 -850 -2145 3 -4 270 -7 594 -7 l590 0 14 36 c8 20 52 133 97
251 45 118 90 235 100 260 16 39 117 303 185 485 13 33 129 336 259 673 130
338 236 616 236 619 0 3 7 19 15 36 8 18 25 61 39 97 13 36 47 126 76 200 29
74 59 153 67 175 7 22 18 49 23 60 5 11 20 49 33 85 14 36 36 94 50 130 30 79
97 253 143 375 19 50 40 104 48 120 8 18 10 38 5 50 -4 11 -40 106 -79 210
-40 105 -87 228 -105 275 -75 194 -124 323 -340 890 -275 722 -273 717 -290
760 -8 19 -55 143 -106 275 -121 319 -138 364 -154 405 -8 19 -33 85 -55 145
-23 61 -45 119 -50 130 -5 11 -41 106 -80 210 -39 105 -76 199 -81 210 -4 11
-18 45 -29 76 l-20 55 -595 0 -595 0 6 -20z"/>
<path d="M3153 8122 l-43 -3 0 -2972 0 -2972 488 2 c268 1 497 2 509 2 l23 1
2 2347 3 2347 560 0 c505 -1 712 -6 785 -18 14 -2 50 -7 80 -11 99 -12 115
-15 130 -21 8 -3 26 -8 40 -10 45 -8 184 -56 257 -90 151 -68 311 -206 366
-314 58 -115 73 -301 37 -461 -32 -145 -101 -258 -209 -339 -108 -81 -298
-150 -511 -185 -25 -4 -53 -9 -62 -10 -26 -5 -166 -17 -233 -20 -33 -2 -239
-4 -458 -4 l-397 -1 2 -697 3 -698 240 1 c543 2 810 20 1140 80 229 41 574
167 708 258 21 14 42 26 46 26 16 0 167 122 243 196 87 85 164 183 238 304 54
88 136 255 146 298 4 15 10 32 14 37 27 37 97 298 115 432 2 13 6 40 9 60 3
21 8 67 11 103 3 36 8 79 11 95 14 78 6 577 -11 685 -2 14 -7 50 -10 80 -19
168 -93 426 -157 554 -114 226 -294 444 -468 568 -67 48 -256 158 -271 158 -5
0 -34 12 -66 26 -71 32 -270 90 -337 99 -27 3 -52 8 -56 10 -3 2 -37 6 -75 10
-39 3 -81 8 -95 10 -14 2 -61 6 -105 10 -44 3 -93 8 -110 10 -115 14 -2367 29
-2532 17z"/>
</g>
</svg>
